<svg width="85" height="85" viewBox="0 0 85 85" fill="none" xmlns="http://www.w3.org/2000/svg">
<circle cx="42.5" cy="42.5" r="42.5" fill="#F8F9FF"/>
<path fill-rule="evenodd" clip-rule="evenodd" d="M59.2497 42.5001C59.2497 43.0554 59.0291 43.5879 58.6364 43.9806C58.2438 44.3732 57.7112 44.5938 57.1559 44.5938H32.8977L41.8883 53.5802C42.0829 53.7749 42.2374 54.006 42.3427 54.2603C42.4481 54.5147 42.5023 54.7873 42.5023 55.0626C42.5023 55.3379 42.4481 55.6105 42.3427 55.8648C42.2374 56.1192 42.0829 56.3503 41.8883 56.545C41.6936 56.7396 41.4625 56.894 41.2082 56.9994C40.9538 57.1048 40.6812 57.159 40.4059 57.159C40.1306 57.159 39.858 57.1048 39.6036 56.9994C39.3493 56.894 39.1182 56.7396 38.9235 56.545L26.361 43.9825C26.166 43.788 26.0113 43.5569 25.9058 43.3025C25.8002 43.0482 25.7459 42.7755 25.7459 42.5001C25.7459 42.2247 25.8002 41.952 25.9058 41.6976C26.0113 41.4432 26.166 41.2122 26.361 41.0177L38.9235 28.4552C39.3167 28.0621 39.8499 27.8412 40.4059 27.8412C40.9619 27.8412 41.4951 28.0621 41.8883 28.4552C42.2814 28.8484 42.5023 29.3816 42.5023 29.9376C42.5023 30.4936 42.2814 31.0268 41.8883 31.42L32.8977 40.4063H57.1559C57.7112 40.4063 58.2438 40.6269 58.6364 41.0196C59.0291 41.4122 59.2497 41.9448 59.2497 42.5001Z" fill="black" fill-opacity="0.3"/>
</svg>
