<svg width="85" height="85" viewBox="0 0 85 85" fill="none" xmlns="http://www.w3.org/2000/svg">
<circle cx="42.5" cy="42.5" r="42.5" fill="#3461FF"/>
<path fill-rule="evenodd" clip-rule="evenodd" d="M25.7503 42.5001C25.7503 43.0554 25.9709 43.5879 26.3636 43.9806C26.7562 44.3732 27.2888 44.5938 27.8441 44.5938H52.1023L43.1117 53.5802C42.9171 53.7749 42.7626 54.006 42.6573 54.2603C42.5519 54.5147 42.4977 54.7873 42.4977 55.0626C42.4977 55.3379 42.5519 55.6105 42.6573 55.8648C42.7626 56.1192 42.9171 56.3503 43.1117 56.545C43.3064 56.7396 43.5375 56.894 43.7918 56.9994C44.0462 57.1048 44.3188 57.159 44.5941 57.159C44.8694 57.159 45.142 57.1048 45.3964 56.9994C45.6507 56.894 45.8818 56.7396 46.0765 56.545L58.639 43.9825C58.834 43.788 58.9887 43.5569 59.0942 43.3025C59.1998 43.0482 59.2541 42.7755 59.2541 42.5001C59.2541 42.2247 59.1998 41.952 59.0942 41.6976C58.9887 41.4432 58.834 41.2122 58.639 41.0177L46.0765 28.4552C45.6833 28.0621 45.1501 27.8412 44.5941 27.8412C44.0381 27.8412 43.5049 28.0621 43.1117 28.4552C42.7186 28.8484 42.4977 29.3816 42.4977 29.9376C42.4977 30.4936 42.7186 31.0268 43.1117 31.42L52.1023 40.4063H27.8441C27.2888 40.4063 26.7562 40.6269 26.3636 41.0196C25.9709 41.4122 25.7503 41.9448 25.7503 42.5001Z" fill="white"/>
</svg>
